<?xml version="1.0" standalone="no"?><!DOCTYPE svg PUBLIC "-//W3C//DTD SVG 1.1//EN" "http://www.w3.org/Graphics/SVG/1.1/DTD/svg11.dtd"><svg t="1774593092255" class="icon" viewBox="0 0 1024 1024" version="1.1" xmlns="http://www.w3.org/2000/svg" p-id="11213" width="32" height="32" xmlns:xlink="http://www.w3.org/1999/xlink"><path d="M0 512a512 512 0 1 0 1024 0A512 512 0 0 0 0 512z" fill="#FD2442" p-id="11214"></path><path d="M428.8 767.68c4.416-9.28 8.064-17.28 12.032-25.152a504.96 504.96 0 0 0 24.448-49.856 30.72 30.72 0 0 1 36.608-22.016c23.04 1.6 46.336 0.384 70.4 0.384v-289.92c-16.256 0-32.256-0.64-48.128 0-11.072 0.512-14.976-2.944-14.72-14.4 0.832-27.52 0-55.04 0-83.712h225.28v66.56c0 31.36 0 31.36-31.424 31.36h-31.68v289.92h68.352c27.52 0 27.52 0 27.52 27.904v58.432c0 8.128-2.048 12.16-11.136 12.16-106.88-0.192-213.824-0.256-320.768-0.192a51.84 51.84 0 0 1-6.784-1.472z" fill="#FFFFFF" p-id="11215"></path><path d="M471.424 557.696c-14.08 27.968-26.432 52.992-39.424 77.568a12.416 12.416 0 0 1-9.472 4.608c-31.36 0-62.784 1.152-94.08-1.088-31.168-2.24-43.712-21.632-31.296-51.2 14.272-34.176 31.296-67.136 47.04-100.608 1.024-2.112 1.792-4.288 3.648-8.96-12.608 0-23.744 0.32-34.816 0-8.96 0.128-17.984-0.64-26.88-2.368a30.72 30.72 0 0 1-24-44.224c19.008-43.968 40.256-87.04 60.8-130.304 6.656-14.208 13.632-28.224 21.12-41.984 1.984-3.584 6.4-8.128 9.856-8.256 29.376-0.64 58.688-0.384 90.688-0.384-2.752 6.912-4.352 11.584-6.464 16-17.92 36.16-35.968 72.32-54.016 108.416-3.648 7.36-8.064 14.976 5.568 20.48 3.648-18.752 18.24-15.36 31.104-15.36h74.048c-3.136 7.168-5.12 12.16-7.424 16.896-22.848 46.08-46.08 91.776-68.608 137.728-9.28 18.752-6.144 23.296 15.36 23.552 11.264-0.448 22.464-0.512 37.248-0.512zM431.168 671.104c-17.344 33.536-32.896 63.744-48.768 93.76a10.56 10.56 0 0 1-8 4.352c-42.624-0.512-85.312-1.28-128-2.304a87.552 87.552 0 0 1-17.152-4.352l23.872-46.464c7.808-15.36 15.36-30.72 23.68-45.312a14.272 14.272 0 0 1 10.24-6.528c39.168 1.92 78.272 4.48 117.376 6.848 7.872 0.32 15.36 0 26.752 0z" fill="#FFFFFF" p-id="11216"></path></svg>